<svg enable-background="new 0 0 720 720" viewBox="0 0 720 720" xmlns="http://www.w3.org/2000/svg">
    <filter id="blurMe">
        <feGaussianBlur in="SourceGraphic" stdDeviation="100" />
    </filter>
    <g clip-rule="evenodd" fill="#efb866" filter="url(#blurMe)" fill-rule="evenodd">
        <path d="m300.9 414.1c181.4-4.8 391.9 9.2 458.3 146.5 76.2 157.6 3.3 351-176.4 436.5-149.1 70.9-296-60.9-432.5-147-116-73.2-264.3-152.6-224.6-267.6 42.7-123.6 217.3-164.3 375.2-168.4z"/>
        <path d="m441.9-297.3c134.9-1.7 275.6 41.4 326.1 166.6 62.5 155 56.2 348.3-78.9 446.7-135.2 98.5-318.9 42.6-449.6-61.8-112.2-89.7-149.2-242.1-99.7-377 44.4-120.8 173.7-172.9 302.1-174.5z"/>
    </g>
</svg>
